Coordinates
version=1
nRows=7
nColumns=42
inDegrees=yes

Units are S.I. units (second, meters, Newtons, ...)
If the header above contains a line with 'inDegrees', this indicates whether rotational values are in degrees (yes) or radians (no).

endheader
time	pelvis_tilt	pelvis_list	pelvis_rotation	pelvis_tx	pelvis_ty	pelvis_tz	hip_flexion_r	hip_adduction_r	hip_rotation_r	knee_angle_r	knee_angle_r_beta	ankle_angle_r	subtalar_angle_r	mtp_angle_r	hip_flexion_l	hip_adduction_l	hip_rotation_l	knee_angle_l	knee_angle_l_beta	ankle_angle_l	subtalar_angle_l	mtp_angle_l	lumbar_extension	lumbar_bending	lumbar_rotation	sh_tx_r	sh_ty_r	sh_tz_r	sh_plane_elev_r	sh_elev_r	sh_axial_rot_r	elbow_flex_r	pro_sup_r	sh_tx_l	sh_ty_l	sh_tz_l	sh_plane_elev_l	sh_elev_l	sh_axial_rot_l	elbow_flex_l	pro_sup_l
      4.33898310	     -3.90758549	      1.51575154	      2.15605466	      0.25435085	      0.94593974	     -0.07020023	      1.34714761	     -4.80217194	     -4.60938448	      1.35281557	      0.02361109	      1.24571376	     -5.89141575	     -7.49999987	      1.51937582	      0.25314734	     -8.63779753	      1.38082205	      0.02409989	      4.68617360	      7.08159670	     -7.49999987	      2.85767261	     -0.71505240	      0.84935243	      0.00033865	      0.01590492	     -0.00303642	     99.43858061	    174.52704914	     -5.57219276	     25.32637499	     67.02409454	     -0.00715740	      0.02946612	     -0.00294141	     93.39484821	    174.85922835	    -14.45468265	     26.25709357	     75.02753016
      4.35593220	     -4.46385198	      1.46084646	      2.18833870	      0.25435781	      0.94484723	     -0.06991074	      2.22548822	     -4.79390804	     -5.18781946	      1.94980454	      0.03403051	      1.61031825	     -4.99734431	     -7.49999987	      2.46862692	      0.16956957	     -9.01956740	      2.03473389	      0.03551281	      5.19211735	      7.76224490	     -7.49999987	      3.82906522	     -0.65079485	      0.87655782	      0.00166662	      0.01603888	     -0.00398939	     97.76578684	    174.19523758	     -6.19996754	     25.69288918	     66.67961652	     -0.00494366	      0.02848258	     -0.00391255	     91.81697196	    174.55615289	    -15.33260207	     26.72088273	     74.40309082
      4.37288140	     -3.92929377	      1.45759863	      2.07717300	      0.25415385	      0.94527586	     -0.06974391	      1.35648086	     -4.71395125	     -4.62487258	      1.40368296	      0.02449889	      1.20497043	     -5.77681827	     -7.49999987	      1.54063641	      0.22572318	     -8.53355455	      1.31447434	      0.02294191	      4.87693932	      7.39862151	     -7.49999987	      2.73446785	     -0.60020940	      0.92225767	     -0.00014893	      0.01679907	     -0.00313985	    100.54243891	    174.58799305	     -4.99210210	     25.88410824	     67.96696950	     -0.00792354	      0.02976012	     -0.00303714	     94.36486230	    174.96837870	    -13.52908313	     26.48377189	     75.71444269
      4.38983050	     -3.96205007	      1.43247759	      2.00197218	      0.25385718	      0.94693793	     -0.06950880	      1.40152609	     -4.66617730	     -4.56048879	      1.41915083	      0.02476885	      1.22516102	     -5.55428604	     -7.49999987	      1.55261112	      0.21366434	     -8.47689336	      1.24058505	      0.02165229	      4.95275491	      7.51102805	     -7.49999987	      3.02375273	     -0.48030587	      0.91233255	      0.00030816	      0.01726104	     -0.00324830	     97.53571739	    174.31806522	     -7.52601913	     26.51453552	     66.80284682	     -0.00662392	      0.03022781	     -0.00315309	     91.60675042	    174.95862356	    -16.00830513	     27.51558429	     73.87985835
      4.40677970	     -3.94259336	      1.39619016	      1.96821865	      0.25379263	      0.94487082	     -0.07010833	      1.41017110	     -4.62376056	     -4.36587321	      1.43540487	      0.02505254	      1.11856449	     -5.81905458	     -7.49999987	      1.55420051	      0.17968561	     -8.33531493	      1.24295359	      0.02169363	      5.16975375	      7.65261771	     -7.49999987	      2.62455460	     -0.45543231	      0.49925105	      0.00045900	      0.01826164	     -0.00319206	    100.49545359	    174.48514527	     -5.78435196	     26.46812017	     67.97018052	     -0.00900963	      0.03135966	     -0.00306096	     94.96950692	    175.36370895	    -12.54316884	     26.93307061	     75.63533601
      4.42372880	     -4.49320256	      1.36265467	      1.95640184	      0.25362244	      0.94322248	     -0.06926676	      2.37145952	     -4.61293209	     -4.65728753	      2.13493806	      0.03726170	      1.47341327	     -5.27464104	     -7.49999987	      2.45115850	      0.09113566	     -8.58213631	      1.87968661	      0.03280672	      5.60645742	      8.00944794	     -7.49999987	      3.68460158	     -0.58311781	      0.72572553	      0.00157875	      0.01865799	     -0.00407879	     98.27638374	    173.94918094	     -6.49945760	     26.68753655	     67.44209881	     -0.00514711	      0.02998908	     -0.00400802	     92.98413934	    174.94014157	    -13.81488192	     27.32466052	     74.73137840
      4.44067800	     -3.97739865	      1.41591624	      1.91471328	      0.25448825	      0.94614038	     -0.06937350	      1.48469663	     -4.59718120	     -4.43076296	      1.51968053	      0.02652343	      1.11661390	     -5.45587446	     -7.49999987	      1.48389213	      0.16317829	     -8.33638001	      1.17225826	      0.02045977	      5.47132938	      8.29197120	     -7.49999987	      3.29994434	     -0.69092553	      1.13075428	      0.00059334	      0.02008919	     -0.00314786	     95.80469257	    173.65268251	     -9.10864547	     27.41497032	     66.62890849	     -0.00406249	      0.03020965	     -0.00310819	     91.09009034	    174.61947648	    -16.62743907	     28.73697269	     73.46191248
